<svg xmlns="http://www.w3.org/2000/svg" viewBox="0 0 80.03 40"><defs><style>.cls-1{fill:#6fb92c;}.cls-2{fill:#f4cc00;}.cls-3{fill:#231815;}.cls-4{fill:#fff;}</style></defs><title>アセット 9</title><g id="レイヤー_2" data-name="レイヤー 2"><g id="レイヤー_1-2" data-name="レイヤー 1"><polygon class="cls-1" points="27.99 18.58 28.05 18.58 34.77 9.76 41.67 9.76 33.16 19.89 42.44 31.16 35.23 31.16 28.05 21.87 27.99 21.87 27.99 18.58"/><path class="cls-1" d="M16.61,20.45c1.53-.91,2.21-2.59,2.21-4.74,0-4.48-3.83-6-7.75-6H8V14h.79c1.65,0,4.43-.08,4.43,2.27,0,2.59-2.75,2.33-4.57,2.33H8V22.3h.65c1.82,0,4.57-.26,4.57,2.33,0,2.35-2.78,2.27-4.43,2.27H8v4.26h3.09c3.92,0,7.75-1.48,7.75-6,0-2.15-.68-3.82-2.21-4.74"/><rect class="cls-2" x="0.11" y="9.75" width="5.57" height="21.4"/><rect class="cls-2" x="20.63" y="9.75" width="5.57" height="21.4"/><polygon class="cls-2" points="49.72 14.54 49.72 18.11 56.22 18.11 56.22 22.83 49.72 22.83 49.72 26.52 56.22 26.52 56.22 31.24 44.15 31.24 44.15 9.83 56.22 9.83 56.22 14.54 49.72 14.54"/><polygon class="cls-2" points="58.63 9.83 64.19 9.83 74.38 22.92 74.44 22.92 74.44 9.83 80 9.83 80 31.24 74.44 31.24 64.25 18.11 64.19 18.11 64.19 31.24 58.63 31.24 58.63 9.83"/><polygon class="cls-2" points="34.77 9.75 43.07 0 49.97 0 41.67 9.75 34.77 9.75"/><rect class="cls-3" y="33.6" width="80.03" height="6.4"/><path class="cls-4" d="M41.82,38.16A2.73,2.73,0,0,0,42.92,37h-.71a3,3,0,0,0,.25.3l-.54.71a2,2,0,0,1-.24-.52V39.3h-.91V37.68a3.45,3.45,0,0,1-.41.86l-.25-1.34a3,3,0,0,0,.62-1.28h-.52V35h.56V34.2h.91V35h.4v.15a3.32,3.32,0,0,0,.22-.93l.82,0c0,.13,0,.25-.06.48h.18V34.2h.94v.58h1v.94h-1V36h1.11V37h-.85a3,3,0,0,0,1,1l-.35,1.14a3.29,3.29,0,0,1-.87-1.14V39.3h-.94V37.92a2.94,2.94,0,0,1-.85,1.21Zm.6-2.12-.34-.31v.19h-.4a4.31,4.31,0,0,0,.4.85V36Zm.82,0v-.32h-.45a2.32,2.32,0,0,1-.16.32Z"/><path class="cls-4" d="M50.32,34.17a4.52,4.52,0,0,1,.23.68h.08v1H49.26v.31a6,6,0,0,0,.27,1.58c.12.31.2.34.27.34s.53-.34.71-.69l.22,1.29a1.27,1.27,0,0,1-1,.68,1,1,0,0,1-.58-.19c-.56-.5-.79-1.34-.9-3.32H45.55v-1h2.63c0-.09,0-.55,0-.65h1.08c0,.06,0,.13,0,.65h.25a4,4,0,0,0-.17-.49Zm-4.84,4c.25,0,.49,0,.9,0V37.09h-.71v-1h2.45v1H47.4v1l.91-.1,0,1a25,25,0,0,1-2.76.28Z"/><path class="cls-4" d="M55,39.36,54.79,39c-2.32.18-2.36.19-3.59.24l-.18-1c.11,0,.67,0,.79,0a5.26,5.26,0,0,0,.25-.66H51v-1h4.82v1H55a15,15,0,0,1,1,1.35Zm-3-3.31a3.64,3.64,0,0,1-.74.36l-.5-1a4.57,4.57,0,0,0,2.07-1.21h1.21a4.73,4.73,0,0,0,2,1.19l-.51,1a4.91,4.91,0,0,1-.71-.34v.34H52Zm2.47,1.48H53.14c-.14.34-.26.6-.29.66h.31l1.08,0c-.11-.16-.21-.28-.31-.4Zm-.44-2a4.45,4.45,0,0,1-.59-.54,3.87,3.87,0,0,1-.61.54Z"/><path class="cls-4" d="M57.83,39.31h-1V37.75l-.5.36-.19-1.25a3.07,3.07,0,0,0,1.13-1.06h-1v-.92h.57v-.66h1v.66h.48v.92a2.42,2.42,0,0,1-.32.64,3,3,0,0,0,.69.55l-.5.95a3,3,0,0,1-.35-.43Zm1.41-5.09h1V35.4h.95v1h-.95v1.77h1v1H58.1v-1h1.14V36.42h-.85v-1h.85Z"/><path class="cls-4" d="M23.13,34.93v-.39h1.08V35a.82.82,0,0,1-.65.92l-.93.23v3H21.57V36.37l-1.95.48v-1Z"/><path class="cls-4" d="M28.35,34.88h-.81v-.67h.81Zm1,0h-.81v-.67h.81ZM29.06,38v1H26.31c-1.14,0-1.62-.39-1.62-1.47V34.35h1v1l3.33-.25v1l-3.33.25v1.08c0,.42.18.58.72.58Z"/><path class="cls-4" d="M30.26,38h.57c1.3,0,1.83-.54,1.83-1.46V36H30.92l-.29,1.08h-1.1l.75-2.74h1.11l-.18.66h3.24v1h-.73v.56c0,1.58-1,2.47-2.87,2.47h-.59Z"/><path class="cls-4" d="M37.61,35.68l-2.69-.11v-1l2.69.1ZM35,38h.86c2,0,2.6-.62,2.6-2.11v-.74h1.06v.78c0,2-1,3.13-3.52,3.13H35Z"/></g></g></svg>