<svg xmlns="http://www.w3.org/2000/svg" width="34.82" height="22.411" viewBox="0 0 34.82 22.411">
  <g id="Group_10219" data-name="Group 10219" transform="translate(1.41 1)">
    <path id="Rectangle_23122" data-name="Rectangle 23122" d="M.568,0H31.433A.566.566,0,0,1,32,.566V19.845a.566.566,0,0,1-.566.566H.567A.567.567,0,0,1,0,19.844V.568A.568.568,0,0,1,.568,0Z" transform="translate(0.001 0)" fill="none" stroke="#fff" stroke-linecap="round" stroke-linejoin="round" stroke-width="2"/>
    <path id="Path_46158" data-name="Path 46158" d="M168.18,86.139l-13.238,11.32a4.408,4.408,0,0,1-5.523,0l-13.239-11.32" transform="translate(-136.181 -84.857)" fill="none" stroke="#fff" stroke-linecap="round" stroke-linejoin="round" stroke-width="2"/>
    <line id="Line_52" data-name="Line 52" x1="10.436" y1="8.924" transform="translate(21.564 10.206)" fill="none" stroke="#fff" stroke-linecap="round" stroke-linejoin="round" stroke-width="2"/>
    <line id="Line_53" data-name="Line 53" x1="10.436" y2="8.924" transform="translate(0.001 10.206)" fill="none" stroke="#fff" stroke-linecap="round" stroke-linejoin="round" stroke-width="2"/>
  </g>
</svg>
