<svg id="Group_10304" data-name="Group 10304" xmlns="http://www.w3.org/2000/svg" width="40" height="40" viewBox="0 0 40 40">
  <rect id="Rectangle_23124" data-name="Rectangle 23124" width="40" height="40" fill="none"/>
  <g id="Group_10222" data-name="Group 10222" transform="translate(4 6)">
    <path id="Path_46159" data-name="Path 46159" d="M11.715,127.379a15.176,15.176,0,0,0-9.364-3.439,12.958,12.958,0,0,0-5.569,1.25.546.546,0,0,0-.279.5v23.573a.579.579,0,0,0,.188.441.365.365,0,0,0,.4.059,12.234,12.234,0,0,1,5.258-1.179,14.423,14.423,0,0,1,8.9,3.272.376.376,0,0,0,.233.084.365.365,0,0,0,.209-.066.562.562,0,0,0,.226-.469V127.831A.575.575,0,0,0,11.715,127.379Z" transform="translate(3.496 -123.94)" fill="#fff" stroke="rgba(0,0,0,0)" stroke-width="1"/>
    <path id="Path_46160" data-name="Path 46160" d="M74.879,125.19a12.954,12.954,0,0,0-5.569-1.25,15.176,15.176,0,0,0-9.363,3.439.574.574,0,0,0-.2.452V151.4a.562.562,0,0,0,.226.469.366.366,0,0,0,.208.066.376.376,0,0,0,.234-.084,14.423,14.423,0,0,1,8.9-3.272,12.239,12.239,0,0,1,5.259,1.179.364.364,0,0,0,.4-.059.579.579,0,0,0,.188-.441V125.69A.546.546,0,0,0,74.879,125.19Z" transform="translate(-43.158 -123.94)" fill="#fff" stroke="rgba(0,0,0,0)" stroke-width="1"/>
  </g>
</svg>
