<svg xmlns="http://www.w3.org/2000/svg" width="200" height="60" viewBox="0 0 200 60">
  <g id="Group_10409" data-name="Group 10409" transform="translate(-8224 3163.75)">
    <g id="Rectangle_1745" data-name="Rectangle 1745" transform="translate(8224 -3163.75)" fill="#fff" stroke="#00a388" stroke-width="1">
      <rect width="200" height="60" rx="4" stroke="none"/>
      <rect x="0.5" y="0.5" width="199" height="59" rx="3.5" fill="none"/>
    </g>
    <g id="Group_10408" data-name="Group 10408" transform="translate(-443 -584.75)">
      <text id="お問い合せ" transform="translate(8817 -2530)" fill="#00a388" font-size="16" font-family="NotoSansJP-Bold, Noto Sans JP" font-weight="700"><tspan x="-40" y="0">お問い合せ</tspan></text>
      <g id="Group_10220" data-name="Group 10220" transform="translate(4172 699)">
        <g id="Group_10219" data-name="Group 10219" transform="translate(4635.4 -3266)">
          <path id="Rectangle_23122" data-name="Rectangle 23122" d="M.568,0H18.633A.566.566,0,0,1,19.2.566V11.68a.566.566,0,0,1-.566.566H.567A.567.567,0,0,1,0,11.679V.568A.568.568,0,0,1,.568,0Z" transform="translate(0 0)" fill="none" stroke="#00a388" stroke-linecap="round" stroke-linejoin="round" stroke-width="1"/>
          <path id="Path_46158" data-name="Path 46158" d="M155.381,86.139l-7.943,6.792a2.645,2.645,0,0,1-3.314,0l-7.943-6.792" transform="translate(-136.181 -85.37)" fill="none" stroke="#00a388" stroke-linecap="round" stroke-linejoin="round" stroke-width="1"/>
          <line id="Line_52" data-name="Line 52" x1="6.262" y1="5.354" transform="translate(12.938 6.124)" fill="none" stroke="#00a388" stroke-linecap="round" stroke-linejoin="round" stroke-width="1"/>
          <line id="Line_53" data-name="Line 53" x1="6.261" y2="5.354" transform="translate(0 6.124)" fill="none" stroke="#00a388" stroke-linecap="round" stroke-linejoin="round" stroke-width="1"/>
        </g>
        <rect id="Rectangle_23123" data-name="Rectangle 23123" width="24" height="24" transform="translate(4633 -3272)" fill="none"/>
      </g>
    </g>
    <g id="Group_10407" data-name="Group 10407" transform="translate(-423 -584.75)">
      <text id="資料請求" transform="translate(8697 -2530)" fill="#00a388" font-size="16" font-family="NotoSansJP-Bold, Noto Sans JP" font-weight="700"><tspan x="-32" y="0">資料請求</tspan></text>
      <g id="Group_10223" data-name="Group 10223" transform="translate(4051 762)">
        <rect id="Rectangle_23124" data-name="Rectangle 23124" width="24" height="24" transform="translate(4634 -3335)" fill="none"/>
        <g id="Group_10222" data-name="Group 10222" transform="translate(4636.4 -3331.4)">
          <path id="Path_46159" data-name="Path 46159" d="M5.631,126A9.106,9.106,0,0,0,.013,123.94a7.775,7.775,0,0,0-3.342.75.328.328,0,0,0-.167.3v14.144a.347.347,0,0,0,.113.264.219.219,0,0,0,.241.035,7.341,7.341,0,0,1,3.155-.707,8.654,8.654,0,0,1,5.338,1.963.226.226,0,0,0,.14.05.219.219,0,0,0,.125-.04.337.337,0,0,0,.135-.281V126.275A.345.345,0,0,0,5.631,126Z" transform="translate(3.496 -123.94)" fill="none" stroke="#00a388" stroke-width="1"/>
          <path id="Path_46160" data-name="Path 46160" d="M68.826,124.69a7.773,7.773,0,0,0-3.341-.75A9.105,9.105,0,0,0,59.867,126a.344.344,0,0,0-.121.271v14.144a.337.337,0,0,0,.135.281.219.219,0,0,0,.125.04.226.226,0,0,0,.14-.05,8.654,8.654,0,0,1,5.338-1.963,7.344,7.344,0,0,1,3.156.707.218.218,0,0,0,.241-.035.347.347,0,0,0,.113-.264V124.99A.327.327,0,0,0,68.826,124.69Z" transform="translate(-49.793 -123.94)" fill="none" stroke="#00a388" stroke-width="1"/>
        </g>
      </g>
    </g>
    <line id="Line_73" data-name="Line 73" y2="40" transform="translate(8324 -3153.75)" fill="none" stroke="#00a388" stroke-width="1"/>
  </g>
</svg>
